<svg xmlns="http://www.w3.org/2000/svg" viewBox="0 0 240 60" width="240" height="60">
  <defs>
    <linearGradient id="bg" x1="0%" y1="0%" x2="100%" y2="100%">
      <stop offset="0%" stop-color="#2563eb"/>
      <stop offset="100%" stop-color="#1d4ed8"/>
    </linearGradient>
    <filter id="shadow">
      <feDropShadow dx="0" dy="2" stdDeviation="3" flood-color="#2563eb" flood-opacity="0.28"/>
    </filter>
  </defs>

  <!-- Icon box -->
  <rect x="0" y="4" width="52" height="52" rx="13" fill="url(#bg)" filter="url(#shadow)"/>

  <!-- Building icon (white, centered in box) -->
  <g transform="translate(13, 12)" fill="none" stroke="white" stroke-width="1.9" stroke-linecap="round" stroke-linejoin="round">
    <path d="M19 28V5a2 2 0 00-2-2H7a2 2 0 00-2 2v23"/>
    <path d="M24 28h2m-2 0h-5m-9 0H3m2 0h5"/>
    <path d="M9 7h1m-1 4h1m4-4h1m-1 4h1"/>
    <path d="M9 23v-5a1 1 0 011-1h4a1 1 0 011 1v5m-6 0h6"/>
  </g>

  <!-- Wordmark -->
  <text x="64" y="34" font-family="'Plus Jakarta Sans','Segoe UI',system-ui,sans-serif" font-size="22" font-weight="900" fill="#0f1623" letter-spacing="-0.6">Servisim</text>
  <text x="65" y="49" font-family="'Plus Jakarta Sans','Segoe UI',system-ui,sans-serif" font-size="11" font-weight="600" fill="#94a3b8" letter-spacing="0.3">Asansör Bakım Yönetimi</text>
</svg>
